<svg width="32" height="32" viewBox="0 0 32 32" fill="none" 
  xmlns="http://www.w3.org/2000/svg">
  <path d="M32 16C32 24.8366 24.8366 32 16 32C7.16344 32 0 24.8366 0 16C0 7.16344 7.16344 0 16 0C24.8366 0 32 7.16344 32 16Z" fill="url(#paint0_linear)"/>
  <path d="M0.294434 19.0711C1.77814 15.0527 7.27583 8.5 18 8.5C18 8.5 14.3594 12 16 16C17.8506 20.5119 22 21.5 31.355 20.5119C29.4071 27.1516 23.2698 32 16 32C8.21385 32 1.7267 26.4384 0.294434 19.0711Z" fill="url(#paint1_radial)"/>
  <defs>
    <linearGradient id="paint0_linear" x1="0" y1="16" x2="32" y2="16" gradientUnits="userSpaceOnUse">
      <stop stop-color="#F16262"/>
      <stop offset="1" stop-color="#F79468"/>
    </linearGradient>
    <radialGradient id="paint1_radial" cx="0" cy="0" r="1" gradientUnits="userSpaceOnUse" gradientTransform="translate(-1.44564e-07 26.5) rotate(-28.9264) scale(21.7083 28.6924)">
      <stop stop-color="#5859A6"/>
      <stop offset="1" stop-color="#29347A"/>
    </radialGradient>
  </defs>
</svg>
